<?xml version="1.0" encoding="UTF-8" standalone="no"?>
<!-- Created with Inkscape (http://www.inkscape.org/) -->

<svg
   version="1.1"
   id="svg2"
   xml:space="preserve"
   width="112.962"
   height="109.12133"
   viewBox="0 0 112.962 109.12133"
   sodipodi:docname="CUB_logo_white_16.svg"
   inkscape:version="1.1 (c68e22c387, 2021-05-23)"
   inkscape:export-filename="/home/alecive/Desktop/Work/CUB Assets/CUB_logo_white_25.png"
   inkscape:export-xdpi="599.99261"
   inkscape:export-ydpi="599.99261"
   xmlns:inkscape="http://www.inkscape.org/namespaces/inkscape"
   xmlns:sodipodi="http://sodipodi.sourceforge.net/DTD/sodipodi-0.dtd"
   xmlns="http://www.w3.org/2000/svg"
   xmlns:svg="http://www.w3.org/2000/svg"
   xmlns:rdf="http://www.w3.org/1999/02/22-rdf-syntax-ns#"
   xmlns:cc="http://creativecommons.org/ns#"
   xmlns:dc="http://purl.org/dc/elements/1.1/"><metadata
     id="metadata8"><rdf:RDF><cc:Work
         rdf:about=""><dc:format>image/svg+xml</dc:format><dc:type
           rdf:resource="http://purl.org/dc/dcmitype/StillImage" /></cc:Work></rdf:RDF></metadata><defs
     id="defs6" /><sodipodi:namedview
     pagecolor="#000000"
     bordercolor="#666666"
     inkscape:document-rotation="0"
     borderopacity="1"
     objecttolerance="10"
     gridtolerance="10"
     guidetolerance="10"
     inkscape:pageopacity="0"
     inkscape:pageshadow="2"
     inkscape:window-width="1728"
     inkscape:window-height="1080"
     id="namedview4"
     showgrid="false"
     fit-margin-top="0"
     fit-margin-left="0"
     fit-margin-right="0"
     fit-margin-bottom="0"
     inkscape:zoom="6.0411452"
     inkscape:cx="71.923449"
     inkscape:cy="52.970089"
     inkscape:window-x="0"
     inkscape:window-y="0"
     inkscape:window-maximized="0"
     inkscape:current-layer="g10"
     inkscape:pagecheckerboard="0" /><g
     id="g10"
     inkscape:groupmode="layer"
     inkscape:label="ink_ext_XXXXXX"
     transform="matrix(1.3333333,0,0,-1.3333333,0,244.97999)"><path
       inkscape:connector-curvature="0"
       id="path14"
       style="fill:#ffffff;fill-opacity:1;fill-rule:nonzero;stroke:none;stroke-width:0.1;opacity:1"
       d="M 62.473,158.67 V 118.339 H 39.5273 v 8.628 h 8.675 l 8.6223,8.62 v 11.518 H 45.2648 v -8.581 H 39.5273 V 158.67 H 22.1855 v -11.565 h 5.7399 v -8.581 H 16.4512 v 28.856 h 28.8136 v -8.71 h 11.5598 v 11.514 l -8.6223,8.669 h -34.639 l -8.67228,-8.669 v -34.597 l 8.67228,-8.62 h 14.3621 v -11.522 l 8.7594,-8.668 h 28.723 l 8.7594,8.668 v 31.66 h 5.6461 V 158.67 Z M 35.3941,103.694 h 31.3012 l 10.5684,10.44 v 29.874 h 5.6574 v 17.756 H 59.9098 v 9.716 L 49.4723,181.935 H 12.2668 L 1.80039,171.483 V 134.337 L 12.2668,123.894 h 12.5789 v -9.754 z m 32.0414,-1.8 H 34.6566 l -11.6113,11.491 v 8.708 H 11.5207 L 0,133.588 v 38.641 l 11.5207,11.506 h 38.7008 l 11.4887,-11.518 v -8.653 H 84.7215 V 142.207 H 79.0641 V 113.382 L 67.4355,101.894" /></g></svg>
