<?xml version="1.0" encoding="UTF-8" standalone="no"?>
<!-- Created with Inkscape (http://www.inkscape.org/) -->

<svg
   xmlns:dc="http://purl.org/dc/elements/1.1/"
   xmlns:cc="http://creativecommons.org/ns#"
   xmlns:rdf="http://www.w3.org/1999/02/22-rdf-syntax-ns#"
   xmlns:svg="http://www.w3.org/2000/svg"
   xmlns="http://www.w3.org/2000/svg"
   xmlns:sodipodi="http://sodipodi.sourceforge.net/DTD/sodipodi-0.dtd"
   xmlns:inkscape="http://www.inkscape.org/namespaces/inkscape"
   width="139.86932mm"
   height="28.405666mm"
   viewBox="0 0 139.86932 28.405666"
   version="1.1"
   id="svg4812"
   inkscape:version="0.92.4 (5da689c313, 2019-01-14)"
   sodipodi:docname="CUB_logo_full.svg">
  <defs
     id="defs4806">
    <clipPath
       id="clipPath4617"
       clipPathUnits="userSpaceOnUse">
      <path
         inkscape:connector-curvature="0"
         id="path4615"
         d="M 0,80.52 H 396.48 V 0 H 0 Z" />
    </clipPath>
    <clipPath
       id="clipPath4703"
       clipPathUnits="userSpaceOnUse">
      <path
         inkscape:connector-curvature="0"
         id="path4701"
         d="M 0,80.52 H 396.48 V 0 H 0 Z" />
    </clipPath>
  </defs>
  <sodipodi:namedview
     id="base"
     pagecolor="#000000"
     bordercolor="#666666"
     borderopacity="1.0"
     inkscape:pageopacity="0"
     inkscape:pageshadow="2"
     inkscape:zoom="4.6962999"
     inkscape:cx="264.31999"
     inkscape:cy="53.679985"
     inkscape:document-units="mm"
     inkscape:current-layer="layer1"
     showgrid="false"
     inkscape:pagecheckerboard="false"
     fit-margin-top="0"
     fit-margin-left="0"
     fit-margin-right="0"
     fit-margin-bottom="0"
     inkscape:window-width="4294"
     inkscape:window-height="3450"
     inkscape:window-x="13887"
     inkscape:window-y="0"
     inkscape:window-maximized="0" />
  <metadata
     id="metadata4809">
    <rdf:RDF>
      <cc:Work
         rdf:about="">
        <dc:format>image/svg+xml</dc:format>
        <dc:type
           rdf:resource="http://purl.org/dc/dcmitype/StillImage" />
        <dc:title></dc:title>
      </cc:Work>
    </rdf:RDF>
  </metadata>
  <g
     inkscape:label="Layer 1"
     inkscape:groupmode="layer"
     id="layer1"
     transform="translate(-32.118906,-392.41026)">
    <g
       id="g4611"
       transform="matrix(0.35277777,0,0,-0.35277777,32.118906,420.81593)"
       style="opacity:0.92;fill:#ffffff;fill-opacity:1">
      <g
         id="g4613"
         clip-path="url(#clipPath4617)"
         style="fill:#ffffff;fill-opacity:1">
        <g
           id="g4619"
           transform="translate(61.506,55.897)"
           style="fill:#ffffff;fill-opacity:1">
          <path
             d="m 0,0 v -39.706 h -22.59 v 8.494 h 8.54 l 8.489,8.487 v 11.339 h -11.381 v -8.447 H -22.59 V 0 h -17.074 v -11.386 h 5.651 v -8.447 H -45.309 V 8.576 h 28.367 V 0 h 11.381 v 11.336 l -8.489,8.534 h -34.103 l -8.537,-8.534 v -34.061 l 8.537,-8.487 h 14.14 v -11.344 l 8.624,-8.534 H 2.889 l 8.624,8.534 v 31.17 h 5.558 L 17.071,0 Z M -26.66,-54.125 H 4.157 l 10.404,10.279 v 29.411 h 5.57 V 3.046 H -2.524 v 9.566 L -12.8,22.905 h -36.63 l -10.304,-10.29 v -36.571 l 10.304,-10.282 h 12.385 v -9.602 z m 31.545,-1.772 h -32.271 l -11.431,11.314 v 8.572 h -11.347 l -11.342,11.318 V 13.35 l 11.342,11.327 h 38.102 L -0.751,13.338 V 4.818 H 21.903 V -16.208 H 16.334 V -44.586 L 4.885,-55.897"
             style="fill:#ffffff;fill-opacity:1;fill-rule:nonzero;stroke:none"
             id="path4621"
             inkscape:connector-curvature="0" />
        </g>
      </g>
    </g>
    <g
       id="g4623"
       transform="matrix(0.35277777,0,0,-0.35277777,66.272733,400.19078)"
       style="opacity:0.92;fill:#ffffff;fill-opacity:1">
      <path
         d="m 0,0 h 2.176 v -14.142 c -0.033,-5.313 2.495,-7.328 6.687,-7.328 4.224,0 6.752,2.015 6.719,7.328 V 0 h 2.176 v -14.622 c 0,-4.705 -2.528,-8.704 -8.895,-8.704 -6.336,0 -8.863,3.999 -8.863,8.704 L 0,0"
         style="fill:#ffffff;fill-opacity:1;fill-rule:nonzero;stroke:none"
         id="path4625"
         inkscape:connector-curvature="0" />
    </g>
    <g
       id="g4627"
       transform="matrix(0.35277777,0,0,-0.35277777,73.937536,402.42598)"
       style="opacity:0.92;fill:#ffffff;fill-opacity:1">
      <path
         d="M 0,0 H 2.016 V -2.848 H 2.08 c 0.736,1.984 2.944,3.328 5.28,3.328 4.64,0 6.048,-2.432 6.048,-6.368 V -16.51 h -2.017 v 10.302 c 0,2.848 -0.927,4.992 -4.191,4.992 -3.2,0 -5.12,-2.432 -5.184,-5.663 V -16.51 H 0 V 0"
         style="fill:#ffffff;fill-opacity:1;fill-rule:nonzero;stroke:none"
         id="path4629"
         inkscape:connector-curvature="0" />
    </g>
    <g
       id="g4631"
       transform="matrix(0.35277777,0,0,-0.35277777,80.022247,402.42598)"
       style="opacity:0.92;fill:#ffffff;fill-opacity:1">
      <path
         d="M 0,0 H 2.016 V -16.51 H 0 Z M 0,6.335 H 2.016 V 3.1036 H 0 Z"
         style="fill:#ffffff;fill-opacity:1;fill-rule:nonzero;stroke:none"
         id="path4633"
         inkscape:connector-curvature="0" />
    </g>
    <g
       id="g4635"
       transform="matrix(0.35277777,0,0,-0.35277777,81.444647,402.42598)"
       style="opacity:0.92;fill:#ffffff;fill-opacity:1">
      <path
         d="M 0,0 H 2.24 L 7.423,-14.495 H 7.487 L 12.607,0 h 2.08 L 8.511,-16.51 H 6.368 L 0,0"
         style="fill:#ffffff;fill-opacity:1;fill-rule:nonzero;stroke:none"
         id="path4637"
         inkscape:connector-curvature="0" />
    </g>
    <g
       id="g4639"
       transform="matrix(0.35277777,0,0,-0.35277777,91.513982,404.93176)"
       style="opacity:0.92;fill:#ffffff;fill-opacity:1">
      <path
         d="m 0,0 c -0.096,3.04 -1.984,5.888 -5.247,5.888 -3.296,0 -5.12,-2.88 -5.44,-5.888 z m -10.687,-1.696 c 0.032,-2.944 1.568,-6.495 5.44,-6.495 2.943,0 4.543,1.728 5.183,4.223 h 2.016 c -0.864,-3.744 -3.04,-5.919 -7.199,-5.919 -5.248,0 -7.456,4.031 -7.456,8.735 0,4.352 2.208,8.735 7.456,8.735 5.311,0 7.423,-4.639 7.263,-9.279 h -12.703"
         style="fill:#ffffff;fill-opacity:1;fill-rule:nonzero;stroke:none"
         id="path4641"
         inkscape:connector-curvature="0" />
    </g>
    <g
       id="g4643"
       transform="matrix(0.35277777,0,0,-0.35277777,93.185091,402.42598)"
       style="opacity:0.92;fill:#ffffff;fill-opacity:1">
      <path
         d="M 0,0 H 1.855 V -3.872 H 1.92 c 1.023,2.656 3.263,4.224 6.239,4.096 V -1.792 C 4.512,-1.6 2.016,-4.288 2.016,-7.711 V -16.51 H 0 V 0"
         style="fill:#ffffff;fill-opacity:1;fill-rule:nonzero;stroke:none"
         id="path4645"
         inkscape:connector-curvature="0" />
    </g>
    <g
       id="g4647"
       transform="matrix(0.35277777,0,0,-0.35277777,100.22936,404.13025)"
       style="opacity:0.92;fill:#ffffff;fill-opacity:1">
      <path
         d="m 0,0 c -0.097,2.496 -2.017,3.616 -4.321,3.616 -1.792,0 -3.903,-0.704 -3.903,-2.848 0,-1.792 2.048,-2.432 3.424,-2.784 l 2.687,-0.608 C 0.191,-2.976 2.591,-4.32 2.591,-7.2 c 0,-3.583 -3.551,-4.959 -6.624,-4.959 -3.839,0 -6.463,1.792 -6.783,5.824 H -8.8 c 0.16,-2.72 2.176,-4.128 4.863,-4.128 1.889,0 4.512,0.832 4.512,3.135 0,1.92 -1.792,2.56 -3.615,3.008 l -2.592,0.576 c -2.624,0.704 -4.608,1.6 -4.608,4.416 0,3.36 3.295,4.64 6.207,4.64 3.296,0 5.92,-1.729 6.048,-5.312 L 0,0"
         style="fill:#ffffff;fill-opacity:1;fill-rule:nonzero;stroke:none"
         id="path4649"
         inkscape:connector-curvature="0" />
    </g>
    <g
       id="g4651"
       transform="matrix(0.35277777,0,0,-0.35277777,102.18234,402.42598)"
       style="opacity:0.92;fill:#ffffff;fill-opacity:1">
      <path
         d="M 0,0 H 2.015 V -16.51 H 0 Z M 0,6.335 H 2.015 V 3.1036 H 0 Z"
         style="fill:#ffffff;fill-opacity:1;fill-rule:nonzero;stroke:none"
         id="path4653"
         inkscape:connector-curvature="0" />
    </g>
    <g
       id="g4655"
       transform="matrix(0.35277777,0,0,-0.35277777,105.38838,402.42598)"
       style="opacity:0.92;fill:#ffffff;fill-opacity:1">
      <path
         d="M 0,0 H 3.359 V -1.696 H 0 v -11.135 c 0,-1.312 0.191,-2.08 1.632,-2.176 0.575,0 1.151,0.032 1.727,0.096 v -1.728 c -0.608,0 -1.184,-0.064 -1.792,-0.064 -2.687,0 -3.616,0.896 -3.584,3.712 v 11.295 h -2.88 V 0 h 2.88 V 4.959 H 0 V 0"
         style="fill:#ffffff;fill-opacity:1;fill-rule:nonzero;stroke:none"
         id="path4657"
         inkscape:connector-curvature="0" />
    </g>
    <g
       id="g4659"
       transform="matrix(0.35277777,0,0,-0.35277777,106.94625,402.42598)"
       style="opacity:0.92;fill:#ffffff;fill-opacity:1">
      <path
         d="M 0,0 H 2.143 L 7.583,-14.079 12.671,0 h 2.015 L 7.518,-19.039 c -1.151,-2.784 -1.823,-3.583 -4.351,-3.583 -0.8,0.032 -1.216,0.032 -1.535,0.16 v 1.696 c 0.479,-0.096 0.927,-0.16 1.376,-0.16 1.791,0 2.207,1.055 2.878,2.591 L 6.591,-16.447 0,0"
         style="fill:#ffffff;fill-opacity:1;fill-rule:nonzero;stroke:none"
         id="path4661"
         inkscape:connector-curvature="0" />
    </g>
    <g
       id="g4663"
       transform="matrix(0.35277777,0,0,-0.35277777,116.38376,405.33816)"
       style="opacity:0.92;fill:#ffffff;fill-opacity:1">
      <path
         d="m 0,0 c 0,-3.52 1.92,-7.04 5.792,-7.04 3.871,0 5.791,3.52 5.791,7.04 0,3.52 -1.92,7.04 -5.791,7.04 C 1.92,7.04 0,3.52 0,0 Z m 13.599,0 c 0,-4.736 -2.752,-8.735 -7.807,-8.735 -5.056,0 -7.808,3.999 -7.808,8.735 0,4.736 2.752,8.735 7.808,8.735 5.055,0 7.807,-3.999 7.807,-8.735"
         style="fill:#ffffff;fill-opacity:1;fill-rule:nonzero;stroke:none"
         id="path4665"
         inkscape:connector-curvature="0" />
    </g>
    <g
       id="g4667"
       transform="matrix(0.35277777,0,0,-0.35277777,124.48883,403.02429)"
       style="opacity:0.92;fill:#ffffff;fill-opacity:1">
      <path
         d="M 0,0 H -3.263 V -14.814 H -5.279 V 0 h -2.815 v 1.696 h 2.815 V 3.2 c -0.032,2.847 0.767,4.831 4,4.831 0.575,0 1.056,-0.031 1.695,-0.128 V 6.176 c -0.544,0.096 -0.991,0.159 -1.471,0.159 -2.241,0 -2.176,-1.407 -2.208,-3.199 V 1.696 H 0 V 0"
         style="fill:#ffffff;fill-opacity:1;fill-rule:nonzero;stroke:none"
         id="path4669"
         inkscape:connector-curvature="0" />
    </g>
    <g
       id="g4671"
       transform="matrix(0.35277777,0,0,-0.35277777,134.33309,402.62882)"
       style="opacity:0.92;fill:#ffffff;fill-opacity:1">
      <path
         d="m 0,0 c -0.769,3.52 -3.68,5.535 -7.008,5.535 -6.048,0 -8.608,-5.055 -8.608,-10.047 0,-4.991 2.56,-10.047 8.608,-10.047 4.223,0 6.911,3.264 7.327,7.328 h 2.176 c -0.608,-5.6 -4.16,-9.184 -9.503,-9.184 -7.2,0 -10.784,5.664 -10.784,11.903 0,6.24 3.584,11.903 10.784,11.903 4.319,0 8.607,-2.592 9.183,-7.391 L 0,0"
         style="fill:#ffffff;fill-opacity:1;fill-rule:nonzero;stroke:none"
         id="path4673"
         inkscape:connector-curvature="0" />
    </g>
    <g
       id="g4675"
       transform="matrix(0.35277777,0,0,-0.35277777,136.66989,405.33816)"
       style="opacity:0.92;fill:#ffffff;fill-opacity:1">
      <path
         d="m 0,0 c 0,-3.52 1.919,-7.04 5.792,-7.04 3.871,0 5.791,3.52 5.791,7.04 0,3.52 -1.92,7.04 -5.791,7.04 C 1.919,7.04 0,3.52 0,0 Z m 13.599,0 c 0,-4.736 -2.752,-8.735 -7.807,-8.735 -5.056,0 -7.808,3.999 -7.808,8.735 0,4.736 2.752,8.735 7.808,8.735 5.055,0 7.807,-3.999 7.807,-8.735"
         style="fill:#ffffff;fill-opacity:1;fill-rule:nonzero;stroke:none"
         id="path4677"
         inkscape:connector-curvature="0" />
    </g>
    <path
       d="m 142.54011,408.25034 h 0.7112 v -8.05956 h -0.7112 z"
       style="opacity:0.92;fill:#ffffff;fill-opacity:1;fill-rule:nonzero;stroke:none;stroke-width:0.35277778"
       id="path4679"
       inkscape:connector-curvature="0" />
    <g
       id="g4681"
       transform="matrix(0.35277777,0,0,-0.35277777,145.0346,405.33816)"
       style="opacity:0.92;fill:#ffffff;fill-opacity:1">
      <path
         d="m 0,0 c 0,-3.52 1.92,-7.04 5.792,-7.04 3.872,0 5.791,3.52 5.791,7.04 0,3.52 -1.919,7.04 -5.791,7.04 C 1.92,7.04 0,3.52 0,0 Z m 13.6,0 c 0,-4.736 -2.752,-8.735 -7.808,-8.735 -5.055,0 -7.807,3.999 -7.807,8.735 0,4.736 2.752,8.735 7.807,8.735 C 10.848,8.735 13.6,4.736 13.6,0"
         style="fill:#ffffff;fill-opacity:1;fill-rule:nonzero;stroke:none"
         id="path4683"
         inkscape:connector-curvature="0" />
    </g>
    <g
       id="g4685"
       transform="matrix(0.35277777,0,0,-0.35277777,150.89389,402.42598)"
       style="opacity:0.92;fill:#ffffff;fill-opacity:1">
      <path
         d="M 0,0 H 1.855 V -3.872 H 1.92 c 1.023,2.656 3.263,4.224 6.239,4.096 V -1.792 C 4.512,-1.6 2.015,-4.288 2.015,-7.711 V -16.51 H 0 V 0"
         style="fill:#ffffff;fill-opacity:1;fill-rule:nonzero;stroke:none"
         id="path4687"
         inkscape:connector-curvature="0" />
    </g>
    <g
       id="g4689"
       transform="matrix(0.35277777,0,0,-0.35277777,158.17487,405.06722)"
       style="opacity:0.92;fill:#ffffff;fill-opacity:1">
      <path
         d="m 0,0 h -0.064 c -0.256,-0.48 -1.151,-0.64 -1.696,-0.736 -3.423,-0.608 -7.679,-0.576 -7.679,-3.808 0,-2.016 1.792,-3.264 3.68,-3.264 3.071,0 5.791,1.953 5.759,5.184 z m -10.751,2.432 c 0.192,3.871 2.912,5.535 6.687,5.535 2.912,0 6.08,-0.896 6.08,-5.311 v -8.768 c 0,-0.767 0.384,-1.216 1.184,-1.216 0.224,0 0.48,0.064 0.639,0.128 V -8.896 C 3.392,-8.992 3.072,-9.023 2.528,-9.023 0.48,-9.023 0.16,-7.872 0.16,-6.144 H 0.096 c -1.408,-2.144 -2.847,-3.359 -6.015,-3.359 -3.04,0 -5.537,1.503 -5.537,4.831 0,4.64 4.512,4.8 8.865,5.312 C -0.928,0.832 0,1.056 0,2.88 0,5.6 -1.952,6.271 -4.32,6.271 -6.815,6.271 -8.671,5.12 -8.735,2.432 h -2.016"
         style="fill:#ffffff;fill-opacity:1;fill-rule:nonzero;stroke:none"
         id="path4691"
         inkscape:connector-curvature="0" />
    </g>
    <g
       id="g4693"
       transform="matrix(0.35277777,0,0,-0.35277777,162.67914,407.82171)"
       style="opacity:0.92;fill:#ffffff;fill-opacity:1">
      <path
         d="m 0,0 c 4.287,0 5.791,3.616 5.791,7.04 0,3.423 -1.504,7.039 -5.791,7.039 -3.84,0 -5.408,-3.616 -5.408,-7.039 C -5.408,3.616 -3.84,0 0,0 Z M 7.808,-1.215 H 5.951 V 1.92 H 5.888 C 5.024,-0.224 2.399,-1.696 0,-1.696 c -5.023,0 -7.424,4.064 -7.424,8.736 0,4.671 2.401,8.735 7.424,8.735 2.464,0 4.863,-1.248 5.728,-3.616 H 5.791 V 21.63 H 7.808 V -1.215"
         style="fill:#ffffff;fill-opacity:1;fill-rule:nonzero;stroke:none"
         id="path4695"
         inkscape:connector-curvature="0" />
    </g>
    <g
       id="g4697"
       transform="matrix(0.35277777,0,0,-0.35277777,32.118906,420.81593)"
       style="opacity:0.92;fill:#ffffff;fill-opacity:1">
      <g
         id="g4699"
         clip-path="url(#clipPath4703)"
         style="fill:#ffffff;fill-opacity:1">
        <g
           id="g4705"
           transform="translate(382.923,43.874)"
           style="fill:#ffffff;fill-opacity:1">
          <path
             d="m 0,0 c 0,-3.52 1.92,-7.04 5.792,-7.04 3.871,0 5.791,3.52 5.791,7.04 0,3.52 -1.92,7.04 -5.791,7.04 C 1.92,7.04 0,3.52 0,0 Z m 13.6,0 c 0,-4.736 -2.752,-8.735 -7.808,-8.735 -5.056,0 -7.807,3.999 -7.807,8.735 0,4.736 2.751,8.735 7.807,8.735 C 10.848,8.735 13.6,4.736 13.6,0"
             style="fill:#ffffff;fill-opacity:1;fill-rule:nonzero;stroke:none"
             id="path4707"
             inkscape:connector-curvature="0" />
        </g>
      </g>
    </g>
    <g
       id="g4709"
       transform="matrix(0.35277777,0,0,-0.35277777,67.119047,419.94298)"
       style="opacity:0.92;fill:#ffffff;fill-opacity:1">
      <path
         d="m 0,0 h 7.488 c 3.231,-0.0322 6.016,1.0557 6.016,4.7031 0,2.9119 -2.208,4.4159 -6.016,4.4159 H 0 Z m 0,10.975 h 7.488 c 3.488,0 5.151,1.728 5.151,3.872 0,2.848 -1.759,4.288 -5.151,4.288 H 0 Z M -2.176,20.99 h 9.664 c 3.839,0 7.327,-1.343 7.327,-5.599 0,-2.4 -1.599,-4.608 -3.968,-5.119 v -0.065 c 2.944,-0.384 4.832,-2.592 4.832,-5.5674 0,-2.1757 -0.768,-6.4951 -8.191,-6.4951 H -2.176 V 20.99"
         style="fill:#ffffff;fill-opacity:1;fill-rule:nonzero;stroke:none"
         id="path4711"
         inkscape:connector-curvature="0" />
    </g>
    <g
       id="g4713"
       transform="matrix(0.35277777,0,0,-0.35277777,74.163313,417.68542)"
       style="opacity:0.92;fill:#ffffff;fill-opacity:1">
      <path
         d="m 0,0 c 0,-3.5195 1.92,-7.04 5.792,-7.04 3.872,0 5.791,3.5205 5.791,7.04 0,3.52 -1.919,7.04 -5.791,7.04 C 1.92,7.04 0,3.52 0,0 Z m 13.599,0 c 0,-4.7353 -2.751,-8.7353 -7.807,-8.7353 -5.056,0 -7.808,4 -7.808,8.7353 0,4.735 2.752,8.735 7.808,8.735 5.056,0 7.807,-4 7.807,-8.735"
         style="fill:#ffffff;fill-opacity:1;fill-rule:nonzero;stroke:none"
         id="path4715"
         inkscape:connector-curvature="0" />
    </g>
    <g
       id="g4717"
       transform="matrix(0.35277777,0,0,-0.35277777,84.740649,420.59756)"
       style="opacity:0.92;fill:#ffffff;fill-opacity:1">
      <path
         d="M 0,0 H -1.856 V 2.9746 H -1.92 c -1.055,-2.207 -3.232,-3.455 -5.695,-3.455 -4.16,0 -5.792,2.4316 -5.792,6.2714 V 16.51 h 2.016 V 5.7598 c 0.096,-2.9766 1.216,-4.5449 4.416,-4.5449 3.456,0 4.959,3.2636 4.959,6.624 V 16.51 H 0 V 0"
         style="fill:#ffffff;fill-opacity:1;fill-rule:nonzero;stroke:none"
         id="path4719"
         inkscape:connector-curvature="0" />
    </g>
    <path
       d="m 86.095669,420.59756 h 0.7112 V 412.538 h -0.7112 z"
       style="opacity:0.92;fill:#ffffff;fill-opacity:1;fill-rule:nonzero;stroke:none;stroke-width:0.35277778"
       id="path4721"
       inkscape:connector-curvature="0" />
    <g
       id="g4723"
       transform="matrix(0.35277777,0,0,-0.35277777,90.543138,420.16897)"
       style="opacity:0.92;fill:#ffffff;fill-opacity:1">
      <path
         d="m 0,0 c 4.288,0 5.792,3.6162 5.792,7.04 0,3.424 -1.504,7.04 -5.792,7.04 -3.839,0 -5.407,-3.616 -5.407,-7.04 C -5.407,3.6162 -3.839,0 0,0 Z M 7.808,-1.2149 H 5.952 V 1.9199 H 5.888 C 5.024,-0.2237 2.4,-1.6953 0,-1.6953 c -5.023,0 -7.423,4.0634 -7.423,8.7353 0,4.672 2.4,8.735 7.423,8.735 2.464,0 4.864,-1.248 5.728,-3.615 h 0.064 v 9.471 H 7.808 V -1.2149"
         style="fill:#ffffff;fill-opacity:1;fill-rule:nonzero;stroke:none"
         id="path4725"
         inkscape:connector-curvature="0" />
    </g>
    <g
       id="g4727"
       transform="matrix(0.35277777,0,0,-0.35277777,98.840471,417.27933)"
       style="opacity:0.92;fill:#ffffff;fill-opacity:1">
      <path
         d="m 0,0 c -0.096,3.041 -1.983,5.889 -5.248,5.889 -3.295,0 -5.119,-2.881 -5.439,-5.889 z m -10.687,-1.6953 c 0.032,-2.9434 1.568,-6.4961 5.439,-6.4961 2.944,0 4.544,1.7285 5.184,4.2246 h 2.016 c -0.864,-3.7442 -3.04,-5.9199 -7.2,-5.9199 -5.247,0 -7.455,4.0312 -7.455,8.7353 0,4.3514 2.208,8.7354 7.455,8.7354 5.313,0 7.424,-4.64 7.264,-9.2793 h -12.703"
         style="fill:#ffffff;fill-opacity:1;fill-rule:nonzero;stroke:none"
         id="path4729"
         inkscape:connector-curvature="0" />
    </g>
    <g
       id="g4731"
       transform="matrix(0.35277777,0,0,-0.35277777,100.51123,414.7732)"
       style="opacity:0.92;fill:#ffffff;fill-opacity:1">
      <path
         d="M 0,0 H 1.856 V -3.871 H 1.92 c 1.024,2.656 3.264,4.224 6.24,4.096 V -1.791 C 4.512,-1.6 2.016,-4.287 2.016,-7.7109 V -16.51 H 0 V 0"
         style="fill:#ffffff;fill-opacity:1;fill-rule:nonzero;stroke:none"
         id="path4733"
         inkscape:connector-curvature="0" />
    </g>
  </g>
</svg>
